<svg aria-hidden="true" style="position: absolute; width: 0; height: 0; overflow: hidden;" version="1.1" xmlns="http://www.w3.org/2000/svg" xmlns:xlink="http://www.w3.org/1999/xlink">
<defs>
<symbol id="calendar" viewBox="0 0 32 32">
<path fill="#c6c6c6" style="fill: var(--color1, #c6c6c6)" d="M30.552 4.125h-1.511v2.244c0 0.517-0.419 0.937-0.937 0.937s-0.937-0.42-0.937-0.937v-2.244h-2.817v2.244c0 0.517-0.42 0.937-0.937 0.937s-0.937-0.42-0.937-0.937v-2.244h-2.817v2.244c0 0.517-0.419 0.937-0.937 0.937s-0.937-0.42-0.937-0.937v-2.244h-2.817v2.244c0 0.517-0.419 0.937-0.937 0.937s-0.937-0.42-0.937-0.937v-2.244h-2.817v2.244c0 0.517-0.419 0.937-0.937 0.937s-0.937-0.42-0.937-0.937v-2.244h-2.817v2.244c0 0.517-0.419 0.937-0.937 0.937s-0.937-0.42-0.937-0.937v-2.244h-2.263c-0.536 0-0.97 0.434-0.97 0.97v24.992c0 0.536 0.434 0.97 0.97 0.97h29.104c0.536 0 0.97-0.434 0.97-0.97v-24.992c0-0.536-0.434-0.97-0.97-0.97z"></path>
<path fill="#ddd" style="fill: var(--color2, #ddd)" d="M30.552 4.125h-1.511v2.244c0 0.517-0.419 0.937-0.937 0.937s-0.937-0.42-0.937-0.937v-2.244h-2.817v2.244c0 0.517-0.42 0.937-0.937 0.937s-0.937-0.42-0.937-0.937v-2.244h-2.817v2.244c0 0.517-0.419 0.937-0.937 0.937s-0.937-0.42-0.937-0.937v-2.244h-2.817v2.244c0 0.517-0.419 0.937-0.937 0.937s-0.937-0.42-0.937-0.937v-2.244h-2.817v2.244c0 0.517-0.419 0.937-0.937 0.937s-0.937-0.42-0.937-0.937v-2.244h-0.965c-4.864 9.381-1.81 21.227 7.56 26.932h15.555c0.536 0 0.97-0.434 0.97-0.97v-24.992c-0-0.536-0.434-0.97-0.97-0.97z"></path>
<path fill="#c62222" style="fill: var(--color3, #c62222)" d="M30.552 4.125h-29.104c-0.536 0-0.97 0.434-0.97 0.97 0 1.429 0 5.554 0 7.21h31.044c0-1.684 0-5.825 0-7.21 0-0.536-0.434-0.97-0.97-0.97z"></path>
<path fill="#f23b3b" style="fill: var(--color4, #f23b3b)" d="M30.552 4.125l-23.114-0c-1.283 2.475-2.076 5.244-2.252 8.181h26.336c0-1.684 0-5.825 0-7.21 0-0.536-0.434-0.97-0.97-0.97z"></path>
<path fill="#6b6968" style="fill: var(--color5, #6b6968)" d="M4.648 7.306c-0.518 0-0.937-0.42-0.937-0.937v-4.489c0-0.517 0.419-0.937 0.937-0.937s0.937 0.42 0.937 0.937v4.489c0 0.517-0.419 0.937-0.937 0.937z"></path>
<path fill="#6b6968" style="fill: var(--color5, #6b6968)" d="M9.339 7.306c-0.517 0-0.937-0.42-0.937-0.937v-4.489c0-0.517 0.42-0.937 0.937-0.937s0.937 0.42 0.937 0.937v4.489c-0 0.517-0.419 0.937-0.937 0.937z"></path>
<path fill="#6b6968" style="fill: var(--color5, #6b6968)" d="M14.030 7.306c-0.517 0-0.937-0.42-0.937-0.937v-4.489c0-0.517 0.419-0.937 0.937-0.937s0.937 0.42 0.937 0.937v4.489c0 0.517-0.42 0.937-0.937 0.937z"></path>
<path fill="#6b6968" style="fill: var(--color5, #6b6968)" d="M18.722 7.306c-0.517 0-0.937-0.42-0.937-0.937v-4.489c0-0.517 0.419-0.937 0.937-0.937s0.937 0.42 0.937 0.937v4.489c-0 0.517-0.42 0.937-0.937 0.937z"></path>
<path fill="#6b6968" style="fill: var(--color5, #6b6968)" d="M28.104 7.306c-0.517 0-0.937-0.42-0.937-0.937v-4.489c0-0.517 0.419-0.937 0.937-0.937s0.937 0.42 0.937 0.937v4.489c0 0.517-0.419 0.937-0.937 0.937z"></path>
<path fill="#6b6968" style="fill: var(--color5, #6b6968)" d="M23.413 7.306c-0.517 0-0.937-0.42-0.937-0.937v-4.489c0-0.517 0.419-0.937 0.937-0.937s0.937 0.42 0.937 0.937v4.489c0 0.517-0.42 0.937-0.937 0.937z"></path>
<path fill="#514e4c" style="fill: var(--color6, #514e4c)" d="M4.648 4.59c-0.518 0-0.937-0.42-0.937-0.937v2.716c0 0.517 0.419 0.937 0.937 0.937s0.937-0.42 0.937-0.937v-2.716c0 0.517-0.419 0.937-0.937 0.937z"></path>
<path fill="#514e4c" style="fill: var(--color6, #514e4c)" d="M9.339 4.59c-0.517 0-0.937-0.42-0.937-0.937v2.716c0 0.517 0.42 0.937 0.937 0.937s0.937-0.42 0.937-0.937v-2.716c-0 0.517-0.419 0.937-0.937 0.937z"></path>
<path fill="#514e4c" style="fill: var(--color6, #514e4c)" d="M14.030 4.59c-0.517 0-0.937-0.42-0.937-0.937v2.716c0 0.517 0.419 0.937 0.937 0.937s0.937-0.42 0.937-0.937v-2.716c0 0.517-0.42 0.937-0.937 0.937z"></path>
<path fill="#514e4c" style="fill: var(--color6, #514e4c)" d="M18.722 4.59c-0.517 0-0.937-0.42-0.937-0.937v2.716c0 0.517 0.419 0.937 0.937 0.937s0.937-0.42 0.937-0.937v-2.716c-0 0.517-0.42 0.937-0.937 0.937z"></path>
<path fill="#514e4c" style="fill: var(--color6, #514e4c)" d="M28.104 4.59c-0.517 0-0.937-0.42-0.937-0.937v2.716c0 0.517 0.419 0.937 0.937 0.937s0.937-0.42 0.937-0.937v-2.716c0 0.517-0.419 0.937-0.937 0.937z"></path>
<path fill="#514e4c" style="fill: var(--color6, #514e4c)" d="M23.413 4.59c-0.517 0-0.937-0.42-0.937-0.937v2.716c0 0.517 0.419 0.937 0.937 0.937s0.937-0.42 0.937-0.937v-2.716c0 0.517-0.42 0.937-0.937 0.937z"></path>
<path fill="#000" style="fill: var(--color7, #000)" d="M17.233 15.029h-1.714c-0.259 0-0.469 0.21-0.469 0.469s0.21 0.469 0.469 0.469h1.714c0.259 0 0.469-0.21 0.469-0.469s-0.21-0.469-0.469-0.469z"></path>
<path fill="#000" style="fill: var(--color7, #000)" d="M21.172 15.029h-1.714c-0.259 0-0.469 0.21-0.469 0.469s0.21 0.469 0.469 0.469h1.714c0.259 0 0.469-0.21 0.469-0.469s-0.21-0.469-0.469-0.469z"></path>
<path fill="#000" style="fill: var(--color7, #000)" d="M25.11 15.029h-1.714c-0.259 0-0.469 0.21-0.469 0.469s0.21 0.469 0.469 0.469h1.714c0.259 0 0.469-0.21 0.469-0.469s-0.21-0.469-0.469-0.469z"></path>
<path fill="#000" style="fill: var(--color7, #000)" d="M27.335 15.966h1.714c0.259 0 0.469-0.21 0.469-0.469s-0.21-0.469-0.469-0.469h-1.714c-0.259 0-0.469 0.21-0.469 0.469s0.21 0.469 0.469 0.469z"></path>
<path fill="#000" style="fill: var(--color7, #000)" d="M5.417 17.96h-1.714c-0.259 0-0.469 0.21-0.469 0.469s0.21 0.469 0.469 0.469h1.714c0.259 0 0.469-0.21 0.469-0.469s-0.21-0.469-0.469-0.469z"></path>
<path fill="#000" style="fill: var(--color7, #000)" d="M9.356 17.96h-1.714c-0.259 0-0.469 0.21-0.469 0.469s0.21 0.469 0.469 0.469h1.714c0.259 0 0.469-0.21 0.469-0.469s-0.21-0.469-0.469-0.469z"></path>
<path fill="#000" style="fill: var(--color7, #000)" d="M13.294 17.96h-1.714c-0.259 0-0.469 0.21-0.469 0.469s0.21 0.469 0.469 0.469h1.714c0.259 0 0.469-0.21 0.469-0.469s-0.21-0.469-0.469-0.469z"></path>
<path fill="#000" style="fill: var(--color7, #000)" d="M17.233 17.96h-1.714c-0.259 0-0.469 0.21-0.469 0.469s0.21 0.469 0.469 0.469h1.714c0.259 0 0.469-0.21 0.469-0.469s-0.21-0.469-0.469-0.469z"></path>
<path fill="#000" style="fill: var(--color7, #000)" d="M21.172 17.96h-1.714c-0.259 0-0.469 0.21-0.469 0.469s0.21 0.469 0.469 0.469h1.714c0.259 0 0.469-0.21 0.469-0.469s-0.21-0.469-0.469-0.469z"></path>
<path fill="#000" style="fill: var(--color7, #000)" d="M25.11 17.96h-1.714c-0.259 0-0.469 0.21-0.469 0.469s0.21 0.469 0.469 0.469h1.714c0.259 0 0.469-0.21 0.469-0.469s-0.21-0.469-0.469-0.469z"></path>
<path fill="#000" style="fill: var(--color7, #000)" d="M27.335 18.897h1.714c0.259 0 0.469-0.21 0.469-0.469s-0.21-0.469-0.469-0.469h-1.714c-0.259 0-0.469 0.21-0.469 0.469s0.21 0.469 0.469 0.469z"></path>
<path fill="#000" style="fill: var(--color7, #000)" d="M5.417 20.89h-1.714c-0.259 0-0.469 0.21-0.469 0.469s0.21 0.469 0.469 0.469h1.714c0.259 0 0.469-0.21 0.469-0.469s-0.21-0.469-0.469-0.469z"></path>
<path fill="#000" style="fill: var(--color7, #000)" d="M9.356 20.89h-1.714c-0.259 0-0.469 0.21-0.469 0.469s0.21 0.469 0.469 0.469h1.714c0.259 0 0.469-0.21 0.469-0.469s-0.21-0.469-0.469-0.469z"></path>
<path fill="#000" style="fill: var(--color7, #000)" d="M13.294 20.89h-1.714c-0.259 0-0.469 0.21-0.469 0.469s0.21 0.469 0.469 0.469h1.714c0.259 0 0.469-0.21 0.469-0.469s-0.21-0.469-0.469-0.469z"></path>
<path fill="#000" style="fill: var(--color7, #000)" d="M17.233 20.89h-1.714c-0.259 0-0.469 0.21-0.469 0.469s0.21 0.469 0.469 0.469h1.714c0.259 0 0.469-0.21 0.469-0.469s-0.21-0.469-0.469-0.469z"></path>
<path fill="#000" style="fill: var(--color7, #000)" d="M21.172 20.89h-1.714c-0.259 0-0.469 0.21-0.469 0.469s0.21 0.469 0.469 0.469h1.714c0.259 0 0.469-0.21 0.469-0.469s-0.21-0.469-0.469-0.469z"></path>
<path fill="#000" style="fill: var(--color7, #000)" d="M25.11 20.89h-1.714c-0.259 0-0.469 0.21-0.469 0.469s0.21 0.469 0.469 0.469h1.714c0.259 0 0.469-0.21 0.469-0.469s-0.21-0.469-0.469-0.469z"></path>
<path fill="#000" style="fill: var(--color7, #000)" d="M27.335 21.828h1.714c0.259 0 0.469-0.21 0.469-0.469s-0.21-0.469-0.469-0.469h-1.714c-0.259 0-0.469 0.21-0.469 0.469s0.21 0.469 0.469 0.469z"></path>
<path fill="#000" style="fill: var(--color7, #000)" d="M5.417 23.821h-1.714c-0.259 0-0.469 0.21-0.469 0.469s0.21 0.469 0.469 0.469h1.714c0.259 0 0.469-0.21 0.469-0.469s-0.21-0.469-0.469-0.469z"></path>
<path fill="#000" style="fill: var(--color7, #000)" d="M9.356 23.821h-1.714c-0.259 0-0.469 0.21-0.469 0.469s0.21 0.469 0.469 0.469h1.714c0.259 0 0.469-0.21 0.469-0.469s-0.21-0.469-0.469-0.469z"></path>
<path fill="#000" style="fill: var(--color7, #000)" d="M13.294 23.821h-1.714c-0.259 0-0.469 0.21-0.469 0.469s0.21 0.469 0.469 0.469h1.714c0.259 0 0.469-0.21 0.469-0.469s-0.21-0.469-0.469-0.469z"></path>
<path fill="#000" style="fill: var(--color7, #000)" d="M17.233 23.821h-1.714c-0.259 0-0.469 0.21-0.469 0.469s0.21 0.469 0.469 0.469h1.714c0.259 0 0.469-0.21 0.469-0.469s-0.21-0.469-0.469-0.469z"></path>
<path fill="#000" style="fill: var(--color7, #000)" d="M21.172 23.821h-1.714c-0.259 0-0.469 0.21-0.469 0.469s0.21 0.469 0.469 0.469h1.714c0.259 0 0.469-0.21 0.469-0.469s-0.21-0.469-0.469-0.469z"></path>
<path fill="#000" style="fill: var(--color7, #000)" d="M25.11 23.821h-1.714c-0.259 0-0.469 0.21-0.469 0.469s0.21 0.469 0.469 0.469h1.714c0.259 0 0.469-0.21 0.469-0.469s-0.21-0.469-0.469-0.469z"></path>
<path fill="#000" style="fill: var(--color7, #000)" d="M27.335 24.758h1.714c0.259 0 0.469-0.21 0.469-0.469s-0.21-0.469-0.469-0.469h-1.714c-0.259 0-0.469 0.21-0.469 0.469s0.21 0.469 0.469 0.469z"></path>
<path fill="#000" style="fill: var(--color7, #000)" d="M5.417 26.752h-1.714c-0.259 0-0.469 0.21-0.469 0.469s0.21 0.469 0.469 0.469h1.714c0.259 0 0.469-0.21 0.469-0.469s-0.21-0.469-0.469-0.469z"></path>
<path fill="#000" style="fill: var(--color7, #000)" d="M9.356 26.752h-1.714c-0.259 0-0.469 0.21-0.469 0.469s0.21 0.469 0.469 0.469h1.714c0.259 0 0.469-0.21 0.469-0.469s-0.21-0.469-0.469-0.469z"></path>
<path fill="#000" style="fill: var(--color7, #000)" d="M13.294 26.752h-1.714c-0.259 0-0.469 0.21-0.469 0.469s0.21 0.469 0.469 0.469h1.714c0.259 0 0.469-0.21 0.469-0.469s-0.21-0.469-0.469-0.469z"></path>
<path fill="#000" style="fill: var(--color7, #000)" d="M17.233 26.752h-1.714c-0.259 0-0.469 0.21-0.469 0.469s0.21 0.469 0.469 0.469h1.714c0.259 0 0.469-0.21 0.469-0.469s-0.21-0.469-0.469-0.469z"></path>
<path fill="#000" style="fill: var(--color7, #000)" d="M30.56 3.649h-1.043v-1.777c0-0.775-0.631-1.406-1.406-1.406s-1.406 0.631-1.406 1.406v1.777h-1.881v-1.777c0-0.775-0.631-1.406-1.406-1.406s-1.406 0.631-1.406 1.406v1.777h-1.881v-1.777c0-0.775-0.631-1.406-1.406-1.406s-1.406 0.631-1.406 1.406v1.777h-1.881v-1.777c0-0.775-0.631-1.406-1.406-1.406s-1.406 0.631-1.406 1.406v1.777h-1.881v-1.777c0-0.775-0.631-1.406-1.406-1.406s-1.406 0.631-1.406 1.406v1.777h-1.881v-1.777c0-0.775-0.631-1.406-1.406-1.406s-1.406 0.631-1.406 1.406v1.777h-1.795c-0.794 0-1.44 0.646-1.44 1.44 0 0.898 0 23.078 0 25.006 0 0.794 0.646 1.439 1.44 1.439h26.193c0.259 0 0.469-0.21 0.469-0.469s-0.21-0.469-0.469-0.469h-26.193c-0.277 0-0.502-0.225-0.502-0.502v-17.323h2.444c0.259 0 0.469-0.21 0.469-0.469s-0.21-0.469-0.469-0.469h-2.444v-6.746c0-0.277 0.225-0.502 0.502-0.502h1.795v1.777c0 0.775 0.631 1.406 1.406 1.406s1.406-0.631 1.406-1.406v-1.777h1.881v1.777c0 0.775 0.631 1.406 1.406 1.406s1.406-0.631 1.406-1.406v-1.777h1.882v1.777c0 0.775 0.631 1.406 1.406 1.406s1.406-0.631 1.406-1.406v-1.777h1.881v1.777c0 0.775 0.631 1.406 1.406 1.406s1.406-0.631 1.406-1.406v-1.777h1.881v1.777c0 0.775 0.631 1.406 1.406 1.406s1.406-0.631 1.406-1.406v-1.777h1.881v1.777c0 0.775 0.631 1.406 1.406 1.406s1.406-0.631 1.406-1.406v-1.777h1.043c0.277 0 0.502 0.225 0.502 0.502v6.746h-25.931c-0.259 0-0.469 0.21-0.469 0.469s0.21 0.469 0.469 0.469h25.931v17.323c0 0.277-0.225 0.502-0.502 0.502h-1.24c-0.259 0-0.469 0.21-0.469 0.469s0.21 0.469 0.469 0.469h1.24c0.794 0 1.439-0.646 1.439-1.439 0-1.991 0-24.151 0-25.006 0-0.794-0.646-1.439-1.44-1.439zM5.11 6.363c0 0.258-0.21 0.469-0.469 0.469s-0.469-0.21-0.469-0.469c0-0.65 0-3.839 0-4.491 0-0.258 0.21-0.469 0.469-0.469s0.469 0.21 0.469 0.469c0 0.65 0 3.839 0 4.491zM9.804 6.363c0 0.258-0.21 0.469-0.469 0.469s-0.469-0.21-0.469-0.469c0-0.65 0-3.839 0-4.491 0-0.258 0.21-0.469 0.469-0.469s0.469 0.21 0.469 0.469v4.491zM14.498 6.363c0 0.258-0.21 0.469-0.469 0.469s-0.469-0.21-0.469-0.469c0-0.65 0-3.839 0-4.491 0-0.258 0.21-0.469 0.469-0.469s0.469 0.21 0.469 0.469c0 0.65 0 3.839 0 4.491zM19.192 6.363c0 0.258-0.21 0.469-0.469 0.469s-0.469-0.21-0.469-0.469c0-0.65 0-3.839 0-4.491 0-0.258 0.21-0.469 0.469-0.469s0.469 0.21 0.469 0.469v4.491zM23.886 6.363c0 0.258-0.21 0.469-0.469 0.469s-0.469-0.21-0.469-0.469c0-0.65 0-3.839 0-4.491 0-0.258 0.21-0.469 0.469-0.469s0.469 0.21 0.469 0.469c0 0.65 0 3.839 0 4.491zM28.58 6.363c0 0.258-0.21 0.469-0.469 0.469s-0.469-0.21-0.469-0.469v-4.491c0-0.258 0.21-0.469 0.469-0.469s0.469 0.21 0.469 0.469c0 0.65 0 3.839 0 4.491z"></path>
<path fill="#000" style="fill: var(--color7, #000)" d="M24.253 10.327c0.259 0 0.469-0.21 0.469-0.469s-0.21-0.469-0.469-0.469h-15.754c-0.259 0-0.469 0.21-0.469 0.469s0.21 0.469 0.469 0.469h15.754z"></path>
</symbol>
<symbol id="icon-calendar" viewBox="0 0 32 32">
<path d="M10 12h4v4h-4zM16 12h4v4h-4zM22 12h4v4h-4zM4 24h4v4h-4zM10 24h4v4h-4zM16 24h4v4h-4zM10 18h4v4h-4zM16 18h4v4h-4zM22 18h4v4h-4zM4 18h4v4h-4zM26 0v2h-4v-2h-14v2h-4v-2h-4v32h30v-32h-4zM28 30h-26v-22h26v22z"></path>
</symbol>
<symbol id="icon-grin" viewBox="0 0 32 32">
<path d="M16 32c8.837 0 16-7.163 16-16s-7.163-16-16-16-16 7.163-16 16 7.163 16 16 16zM16 3c7.18 0 13 5.82 13 13s-5.82 13-13 13-13-5.82-13-13 5.82-13 13-13zM6 16v2c0 4.4 3.6 8 8 8h4c4.4 0 8-3.6 8-8v-2h-20zM12 23.656c-0.829-0.296-1.591-0.776-2.236-1.42-1.138-1.138-1.764-2.642-1.764-4.236h4v5.656zM18 24h-4v-6h4v6zM22.236 22.236c-0.645 0.645-1.407 1.125-2.236 1.42v-5.656h4c0 1.594-0.627 3.098-1.764 4.236zM7.042 12c0 0 0 0 0 0 0.305 0 0.566-0.22 0.616-0.522 0.192-1.146 1.177-1.978 2.341-1.978s2.149 0.832 2.341 1.978c0.050 0.301 0.311 0.522 0.616 0.522s0.566-0.22 0.616-0.521c0.034-0.201 0.051-0.404 0.051-0.604 0-1.999-1.626-3.625-3.625-3.625s-3.625 1.626-3.625 3.625c0 0.199 0.017 0.402 0.051 0.604 0.051 0.301 0.311 0.521 0.616 0.521zM19.042 12c0 0 0 0 0 0 0.305 0 0.566-0.22 0.616-0.522 0.192-1.146 1.177-1.978 2.341-1.978s2.149 0.832 2.341 1.978c0.050 0.301 0.311 0.522 0.616 0.522s0.566-0.22 0.616-0.521c0.034-0.201 0.051-0.404 0.051-0.604 0-1.999-1.626-3.625-3.625-3.625s-3.625 1.626-3.625 3.625c0 0.199 0.017 0.402 0.051 0.604 0.051 0.301 0.311 0.521 0.617 0.521z"></path>
</symbol>
</defs>
<defs>
<symbol id="icon-undo2" viewBox="0 0 32 32">
<path d="M23.808 32c3.554-6.439 4.153-16.26-9.808-15.932v7.932l-12-12 12-12v7.762c16.718-0.436 18.58 14.757 9.808 24.238z"></path>
</symbol>
</defs>
</svg>
